<?xml version="1.0" encoding="UTF-8"?>
<svg xmlns="http://www.w3.org/2000/svg" width="1080" height="1920" viewBox="0 0 1080 1920">
  <defs>
    <linearGradient id="storyBg" x1="0" y1="0" x2="1080" y2="1920" gradientUnits="userSpaceOnUse">
      <stop offset="0" stop-color="#050912"/>
      <stop offset="0.52" stop-color="#180929"/>
      <stop offset="1" stop-color="#061824"/>
    </linearGradient>
    <pattern id="storyGrid" width="72" height="72" patternUnits="userSpaceOnUse">
      <path d="M72 0H0V72" fill="none" stroke="#fff200" stroke-width="2" opacity="0.14"/>
    </pattern>
    <clipPath id="storyPhoneClip">
      <rect x="290" y="360" width="500" height="1080" rx="64"/>
    </clipPath>
  </defs>
  <rect width="1080" height="1920" fill="url(#storyBg)"/>
  <rect width="1080" height="1920" fill="url(#storyGrid)"/>
  <rect x="58" y="58" width="964" height="1804" rx="40" fill="none" stroke="#fff200" stroke-width="5"/>
  <rect x="82" y="82" width="330" height="58" rx="14" fill="#00f3ff" opacity="0.2"/>
  <text x="108" y="121" fill="#00f3ff" font-size="24" font-family="Arial, Helvetica, sans-serif" font-weight="900" letter-spacing="4">PRODUCT PROOF</text>
  <text x="996" y="121" text-anchor="end" fill="#fe00fe" font-size="22" font-family="Arial, Helvetica, sans-serif" font-weight="900">New in 1.2.2</text>
  <text x="90" y="225" fill="#ffffff" font-size="56" font-family="Arial, Helvetica, sans-serif" font-style="italic" font-weight="900">Home Screen Widgets</text>
  <g transform="rotate(-3 540 900)">
    <rect x="272" y="342" width="536" height="1116" rx="82" fill="#020409" stroke="#fe00fe" stroke-width="7"/>
    <rect x="290" y="360" width="500" height="1080" rx="64" fill="#11051f"/>
      <g font-family="Arial, Helvetica, sans-serif">
      <rect x="386" y="777.5" width="308" height="84" rx="17.5" fill="#08101a" stroke="#fff200" stroke-width="6"/>
      <text x="403.5" y="809" fill="#fff200" font-size="21" font-weight="900" letter-spacing="2">ALARM STATUS</text>
      <text x="403.5" y="840.5" fill="#ffffff" font-size="24.500000000000004" font-weight="800">06:00 AM / ARMED</text>
      <rect x="386" y="886" width="147" height="147" rx="21" fill="#08101a" stroke="#fe00fe" stroke-width="6"/>
      <circle cx="459.5" cy="952.5" r="38.5" fill="none" stroke="#ffffff" stroke-width="10" opacity="0.28"/>
      <path d="M459.5 914a38.5 38.5 0 0 1 28 63" fill="none" stroke="#fe00fe" stroke-width="10" stroke-linecap="round"/>
      <text x="459.5" y="963" text-anchor="middle" fill="#ffffff" font-size="22.75" font-weight="900">67</text>
      <text x="459.5" y="1012" text-anchor="middle" fill="#fe00fe" font-size="15.75" font-weight="900">MISSION</text>
      <rect x="557.5" y="886" width="136.5" height="147" rx="21" fill="#08101a" stroke="#00f3ff" stroke-width="6"/>
      <text x="578.5" y="931.5" fill="#00f3ff" font-size="17.5" font-weight="900">QUOTE</text>
      <path d="M578.5 959.5h87.5M578.5 984h70M578.5 1008.5h56" stroke="#ffffff" stroke-width="6" stroke-linecap="round" opacity="0.8"/>
    </g>
    <rect x="472" y="380" width="136" height="15" rx="7" fill="#020409"/>
  </g>
  <rect x="70" y="1535" width="940" height="282" rx="28" fill="#050912" stroke="#00f3ff" stroke-width="4" opacity="0.96"/>
  <text x="90" y="1605" fill="#ffffff" font-size="42" font-family="Arial, Helvetica, sans-serif" font-weight="800">Alarm status, habit progress,</text>
  <text x="90" y="1667" fill="#ffffff" font-size="42" font-family="Arial, Helvetica, sans-serif" font-weight="800">and quote widgets match the</text>
  <text x="90" y="1729" fill="#ffffff" font-size="42" font-family="Arial, Helvetica, sans-serif" font-weight="800">console.</text>
  <text x="90" y="1790" fill="#fff200" font-size="24" font-family="Arial, Helvetica, sans-serif" font-weight="900" letter-spacing="4">WAKE UP YA BISH / SCENE 02</text>
</svg>